<svg width="15" height="12" viewBox="0 0 15 12" fill="none" xmlns="http://www.w3.org/2000/svg">
<path d="M14.1172 6.14844C14.1172 5.89844 14.0234 5.6849 13.8359 5.50781L8.99219 0.65625C8.89323 0.5625 8.79167 0.492188 8.6875 0.445312C8.57812 0.398438 8.46875 0.375 8.35938 0.375C8.10938 0.375 7.90365 0.455729 7.74219 0.617188C7.58073 0.773438 7.5 0.971354 7.5 1.21094C7.5 1.33594 7.52344 1.45312 7.57031 1.5625C7.61719 1.66667 7.67969 1.75781 7.75781 1.83594L9.41406 3.50781L12.0938 5.96094L12.4062 5.42969L9.76562 5.28125H0.929688C0.669271 5.28125 0.458333 5.36198 0.296875 5.52344C0.130208 5.6849 0.046875 5.89323 0.046875 6.14844C0.046875 6.40885 0.130208 6.61979 0.296875 6.78125C0.458333 6.94271 0.669271 7.02344 0.929688 7.02344H9.76562L12.4062 6.86719L12.0938 6.35156L9.41406 8.79688L7.75781 10.4688C7.67969 10.5469 7.61719 10.6406 7.57031 10.75C7.52344 10.8542 7.5 10.9688 7.5 11.0938C7.5 11.3333 7.58073 11.5312 7.74219 11.6875C7.90365 11.8438 8.10938 11.9219 8.35938 11.9219C8.58333 11.9219 8.78906 11.8333 8.97656 11.6562L13.8359 6.79688C14.0234 6.61979 14.1172 6.40365 14.1172 6.14844Z" fill="#0F0E0E"/>
</svg>
