<?xml version="1.0" encoding="UTF-8"?>
<svg id="Layer_1" xmlns="http://www.w3.org/2000/svg" version="1.1" viewBox="0 0 313.4 132.4">
  <!-- Generator: Adobe Illustrator 29.5.1, SVG Export Plug-In . SVG Version: 2.1.0 Build 141)  -->
  <path d="M10.3,36.5h-6V6.3h9.4l5.6,23.8,5.6-23.8h9.3v30.2h-6v-20.4c0-.6,0-1.4,0-2.5,0-1.1,0-1.9,0-2.5l-5.8,25.4h-6.3l-5.8-25.4c0,.6,0,1.4,0,2.5,0,1.1,0,1.9,0,2.5v20.4Z"/>
  <path d="M58.3,24.8V6.3h6.6v18.6c0,3.2-.5,5.7-1.5,7.5-1.9,3.3-5.5,4.9-10.9,4.9s-9-1.6-10.9-4.9c-1-1.8-1.5-4.3-1.5-7.5V6.3h6.6v18.6c0,2.1.3,3.6.8,4.6.8,1.7,2.5,2.5,5.1,2.5s4.3-.8,5.1-2.5c.5-1,.8-2.5.8-4.6Z"/>
  <path d="M82.2,32.1c1.5,0,2.8-.2,3.7-.5,1.8-.6,2.7-1.8,2.7-3.5s-.4-1.8-1.3-2.3c-.9-.5-2.3-1-4.2-1.4l-3.3-.7c-3.2-.7-5.4-1.5-6.7-2.3-2.1-1.4-3.1-3.6-3.1-6.5s1-5,3-6.7,5-2.7,8.9-2.7,6,.8,8.3,2.5c2.3,1.7,3.5,4.1,3.6,7.4h-6.2c-.1-1.8-.9-3.1-2.4-3.9-1-.5-2.3-.8-3.7-.8s-3,.3-4,1c-1,.7-1.5,1.6-1.5,2.7s.5,1.9,1.5,2.4c.6.4,2,.8,4,1.3l5.3,1.3c2.3.5,4.1,1.3,5.3,2.2,1.8,1.4,2.8,3.5,2.8,6.2s-1.1,5.1-3.2,6.9-5.2,2.7-9.1,2.7-7.2-.9-9.5-2.7-3.5-4.3-3.5-7.4h6.2c.2,1.4.6,2.4,1.2,3.1,1,1.2,2.8,1.9,5.4,1.9Z"/>
  <path d="M121.1,23.3h-15v7.8h17.1v5.4h-23.4V6.3h22.6v5.4h-16.3v6.4h15v5.2Z"/>
  <path d="M149.7,23.3h-15v7.8h17.1v5.4h-23.4V6.3h22.6v5.4h-16.3v6.4h15v5.2Z"/>
  <path d="M182,36.5h-13.3V6.3h13.3c1.9,0,3.5.2,4.8.7,2.2.7,3.9,2,5.3,3.8,1.1,1.5,1.8,3.1,2.2,4.9s.6,3.4.6,5c0,4-.8,7.4-2.5,10.2-2.2,3.8-5.7,5.6-10.3,5.6ZM186.8,14c-1-1.6-3-2.5-5.9-2.5h-5.9v19.7h5.9c3,0,5.2-1.5,6.4-4.4.7-1.6,1-3.5,1-5.8s-.5-5.4-1.5-7.1Z"/>
  <path d="M205.1,10.7c0,2.1-.5,3.7-1.5,4.9s-2.5,2-4.3,2.3v-2.2c1.4-.4,2.3-1.1,2.8-2.2.3-.6.4-1.2.4-1.8h-3.3v-5.4h6v4.3Z"/>
  <path d="M229.7,30.3h-11.4l-2.1,6.2h-6.7l11-30.2h7.3l10.9,30.2h-7l-2-6.2ZM227.9,25.1l-3.9-11.9-4,11.9h7.8Z"/>
  <path d="M255.6,24.6h-6.7v11.9h-6.3V6.3h15.1c2.2,0,3.8.3,5,.8s2.2,1.2,3,2.1c.7.8,1.2,1.6,1.6,2.5s.6,2,.6,3.2-.4,2.8-1.1,4.2c-.7,1.4-2,2.4-3.7,2.9,1.4.6,2.4,1.4,3,2.4s.9,2.6.9,4.7v2c0,1.4,0,2.3.2,2.8.2.8.6,1.4,1.2,1.7v.8h-7.1c-.2-.7-.3-1.2-.4-1.6-.2-.8-.3-1.7-.3-2.6v-2.8c0-1.9-.4-3.2-1.1-3.9-.7-.6-2-1-3.9-1ZM259.6,19.1c1.3-.6,1.9-1.7,1.9-3.4s-.6-3.1-1.9-3.7c-.7-.4-1.7-.5-3.1-.5h-7.5v8.1h7.3c1.5,0,2.5-.2,3.3-.5Z"/>
  <path d="M295.9,6.3v5.4h-9.2v24.9h-6.5V11.6h-9.3v-5.4h25Z"/>
  <path d="M25.9,67.3h-15v7.8h17.1v5.4H4.6v-30.2h22.6v5.4H10.9v6.4h15v5.2Z"/>
  <path d="M55.4,50.3v5.4h-9.2v24.9h-6.5v-24.9h-9.3v-5.4h25Z"/>
  <path d="M84.4,80.5h-13.3v-30.2h13.3c1.9,0,3.5.2,4.8.7,2.2.7,3.9,2,5.3,3.8,1.1,1.5,1.8,3.1,2.2,4.9s.6,3.4.6,5c0,4-.8,7.4-2.5,10.2-2.2,3.8-5.7,5.6-10.3,5.6ZM89.1,58c-1-1.6-3-2.5-5.9-2.5h-5.9v19.7h5.9c3,0,5.2-1.5,6.4-4.4.7-1.6,1-3.5,1-5.8s-.5-5.4-1.5-7.1Z"/>
  <path d="M107.5,54.7c0,2.1-.5,3.7-1.5,4.9-1,1.2-2.5,2-4.3,2.3v-2.2c1.4-.4,2.3-1.1,2.8-2.2.3-.6.4-1.2.4-1.8h-3.3v-5.4h6v4.3Z"/>
  <path d="M132.3,80.5v-13.5h-12.1v13.5h-6.4v-30.2h6.4v11.5h12.1v-11.5h6.4v30.2h-6.4Z"/>
  <path d="M144.4,50.3h6.4v30.2h-6.4v-30.2Z"/>
  <path d="M168,76.1c1.5,0,2.8-.2,3.7-.5,1.8-.6,2.7-1.8,2.7-3.5s-.4-1.8-1.3-2.3c-.9-.5-2.3-1-4.2-1.4l-3.3-.7c-3.2-.7-5.4-1.5-6.7-2.3-2.1-1.4-3.1-3.6-3.1-6.5s1-5,3-6.7c2-1.8,5-2.7,8.9-2.7s6,.8,8.3,2.5,3.5,4.1,3.6,7.4h-6.2c-.1-1.8-.9-3.1-2.4-3.9-1-.5-2.3-.8-3.7-.8s-3,.3-4,1-1.5,1.6-1.5,2.7.5,1.9,1.5,2.4c.6.4,2,.8,4,1.3l5.3,1.3c2.3.5,4.1,1.3,5.3,2.2,1.8,1.4,2.8,3.5,2.8,6.2s-1.1,5.1-3.2,6.9c-2.2,1.8-5.2,2.7-9.1,2.7s-7.2-.9-9.5-2.7c-2.3-1.8-3.5-4.3-3.5-7.4h6.2c.2,1.4.6,2.4,1.2,3.1,1,1.2,2.8,1.9,5.4,1.9Z"/>
  <path d="M207.8,50.3v5.4h-9.2v24.9h-6.5v-24.9h-9.3v-5.4h25Z"/>
  <path d="M224.5,81.3c-4.4,0-7.8-1.2-10.1-3.5-3.1-2.9-4.7-7-4.7-12.5s1.6-9.7,4.7-12.5c2.3-2.4,5.7-3.5,10.1-3.5s7.8,1.2,10.1,3.5c3.1,2.8,4.7,6.9,4.7,12.5s-1.6,9.6-4.7,12.5c-2.3,2.4-5.7,3.5-10.1,3.5ZM230.6,73.2c1.5-1.8,2.2-4.5,2.2-7.9s-.8-6-2.2-7.9-3.5-2.8-6.1-2.8-4.6.9-6.1,2.8c-1.5,1.8-2.3,4.5-2.3,7.9s.8,6,2.3,7.9c1.5,1.8,3.6,2.8,6.1,2.8s4.6-.9,6.1-2.8Z"/>
  <path d="M243.7,50.3h6.4v30.2h-6.4v-30.2Z"/>
  <path d="M269.2,68.6h-6.7v11.9h-6.3v-30.2h15.1c2.2,0,3.8.3,5,.8s2.2,1.2,3,2.1c.7.8,1.2,1.6,1.6,2.5s.6,2,.6,3.2-.4,2.8-1.1,4.2c-.7,1.4-2,2.4-3.7,2.9,1.4.6,2.4,1.4,3,2.4s.9,2.6.9,4.7v2c0,1.4,0,2.3.2,2.8.2.8.6,1.4,1.2,1.7v.8h-7.1c-.2-.7-.3-1.2-.4-1.6-.2-.8-.3-1.7-.3-2.6v-2.8c0-1.9-.4-3.2-1.1-3.9-.7-.6-2-1-3.9-1ZM273.1,63.1c1.3-.6,1.9-1.7,1.9-3.4s-.6-3.1-1.9-3.7c-.7-.4-1.7-.5-3.1-.5h-7.5v8.1h7.3c1.5,0,2.5-.2,3.3-.5Z"/>
  <path d="M308.5,67.3h-15v7.8h17.1v5.4h-23.4v-30.2h22.6v5.4h-16.3v6.4h15v5.2Z"/>
  <path d="M26.3,99.6h-15.5v7h13.5v5.2h-13.5v12.7h-6.4v-30.2h21.9v5.3Z"/>
  <path d="M43.7,112.6h-6.7v11.9h-6.3v-30.2h15.1c2.2,0,3.8.3,5,.8,1.2.5,2.2,1.2,3,2.1.7.8,1.2,1.6,1.6,2.5.4.9.6,2,.6,3.2s-.4,2.8-1.1,4.2c-.7,1.4-2,2.4-3.7,2.9,1.4.6,2.4,1.4,3,2.4.6,1,.9,2.6.9,4.7v2c0,1.4,0,2.3.2,2.8.2.8.6,1.4,1.2,1.7v.8h-7.1c-.2-.7-.3-1.2-.4-1.6-.2-.8-.3-1.7-.3-2.6v-2.8c0-1.9-.4-3.2-1.1-3.9s-2-1-3.9-1ZM47.6,107.1c1.3-.6,1.9-1.7,1.9-3.4s-.6-3.1-1.9-3.7c-.7-.4-1.7-.5-3.1-.5h-7.5v8.1h7.3c1.5,0,2.5-.2,3.3-.5Z"/>
  <path d="M61,94.3h6.4v30.2h-6.4v-30.2Z"/>
  <path d="M87.5,124.5h-14v-30.2h15c3.8,0,6.5,1.1,8,3.2.9,1.3,1.4,2.8,1.4,4.6s-.5,3.3-1.4,4.5c-.5.6-1.3,1.2-2.3,1.7,1.6.6,2.8,1.4,3.6,2.7s1.2,2.7,1.2,4.4-.5,3.4-1.4,4.8c-.6.9-1.3,1.7-2.2,2.4-1,.7-2.2,1.2-3.5,1.5s-2.8.4-4.4.4ZM90.6,105.4c.8-.5,1.3-1.4,1.3-2.6s-.6-2.3-1.7-2.8c-1-.3-2.2-.5-3.7-.5h-6.8v6.7h7.6c1.4,0,2.5-.3,3.3-.8ZM87.4,111.2h-7.7v8.1h7.6c1.4,0,2.4-.2,3.2-.5,1.4-.7,2.1-1.9,2.1-3.8s-.7-2.7-2-3.2c-.7-.3-1.8-.5-3.1-.5Z"/>
  <path d="M118,125.3c-4.4,0-7.8-1.2-10.1-3.5-3.1-2.9-4.7-7-4.7-12.5s1.6-9.7,4.7-12.5c2.3-2.4,5.7-3.5,10.1-3.5s7.8,1.2,10.1,3.5c3.1,2.8,4.7,6.9,4.7,12.5s-1.6,9.6-4.7,12.5c-2.3,2.4-5.7,3.5-10.1,3.5ZM124.1,117.2c1.5-1.8,2.2-4.5,2.2-7.9s-.8-6-2.2-7.9-3.5-2.8-6.1-2.8-4.6.9-6.1,2.8c-1.5,1.8-2.3,4.5-2.3,7.9s.8,6,2.3,7.9c1.5,1.8,3.6,2.8,6.1,2.8s4.6-.9,6.1-2.8Z"/>
  <path d="M156,112.8v-18.6h6.6v18.6c0,3.2-.5,5.7-1.5,7.5-1.9,3.3-5.5,4.9-10.9,4.9s-9-1.6-10.9-4.9c-1-1.8-1.5-4.3-1.5-7.5v-18.6h6.6v18.6c0,2.1.3,3.6.8,4.6.8,1.7,2.5,2.5,5.1,2.5s4.3-.8,5.1-2.5c.5-1,.8-2.5.8-4.6Z"/>
  <path d="M181.8,112.6h-6.7v11.9h-6.3v-30.2h15.1c2.2,0,3.8.3,5,.8s2.2,1.2,3,2.1c.7.8,1.2,1.6,1.6,2.5s.6,2,.6,3.2-.4,2.8-1.1,4.2c-.7,1.4-2,2.4-3.7,2.9,1.4.6,2.4,1.4,3,2.4.6,1,.9,2.6.9,4.7v2c0,1.4,0,2.3.2,2.8.2.8.6,1.4,1.2,1.7v.8h-7.1c-.2-.7-.3-1.2-.4-1.6-.2-.8-.3-1.7-.3-2.6v-2.8c0-1.9-.4-3.2-1.1-3.9-.7-.6-2-1-3.9-1ZM185.7,107.1c1.3-.6,1.9-1.7,1.9-3.4s-.6-3.1-1.9-3.7c-.7-.4-1.7-.5-3.1-.5h-7.5v8.1h7.3c1.5,0,2.5-.2,3.3-.5Z"/>
  <path d="M218.6,123.7c-1.7,1-3.8,1.5-6.3,1.5-4.1,0-7.4-1.4-10-4.2-2.7-2.8-4.1-6.6-4.1-11.4s1.4-8.8,4.1-11.8c2.7-3,6.4-4.4,10.9-4.4s7.1,1,9.4,2.9c2.4,1.9,3.7,4.4,4.1,7.3h-6.3c-.5-2.1-1.7-3.5-3.6-4.3-1.1-.5-2.2-.7-3.5-.7-2.5,0-4.5.9-6.1,2.8-1.6,1.8-2.4,4.6-2.4,8.3s.9,6.4,2.6,7.9c1.7,1.5,3.7,2.3,5.9,2.3s3.9-.6,5.3-1.8c1.4-1.2,2.2-2.8,2.6-4.8h-7.1v-5h12.9v16.2h-4.3l-.6-3.8c-1.2,1.4-2.4,2.4-3.3,3Z"/>
</svg>